<?xml version="1.0" encoding="UTF-8"?>
<!DOCTYPE svg PUBLIC "-//W3C//DTD SVG 1.1//EN" "http://www.w3.org/Graphics/SVG/1.1/DTD/svg11.dtd">
<!-- Creator: CorelDRAW 2017 -->
<svg xmlns="http://www.w3.org/2000/svg" xml:space="preserve" width="100px" height="100px" version="1.1" style="shape-rendering:geometricPrecision; text-rendering:geometricPrecision; image-rendering:optimizeQuality; fill-rule:evenodd; clip-rule:evenodd"
viewBox="0 0 699 699"
 xmlns:xlink="http://www.w3.org/1999/xlink">
 <defs>
  <style type="text/css">
   <![CDATA[
    .fil0 {fill:#4D4D4D}
   ]]>
  </style>
 </defs>
 <g id="Capa_x0020_1">
  <metadata id="CorelCorpID_0Corel-Layer"/>
  <path class="fil0" d="M0 0l699 0 0 699 -699 0 0 -699zm55 599l588 0 0 21 -588 0 0 -21zm547 -417l0 37 -256 -97 -248 97 0 -35 250 -106 254 104zm-82 37l-73 0 -97 -35 -105 35 -75 0 180 -72 170 72zm-422 295l20 0 0 -232 -20 0 0 -43 504 0 0 43 -21 0 0 232 21 0 0 21 -504 0 0 -21zm440 -232l-40 0 0 232 40 0 0 -232zm-83 0l-41 0 0 232 41 0 0 -232zm-84 0l-44 0 0 232 44 0 0 -232zm-86 0l-41 0 0 232 41 0 0 -232zm-84 0l-40 0 0 232 40 0 0 -232zm-124 275l546 0 0 21 -546 0 0 -21z"/>
 </g>
</svg>
