<?xml version="1.0" encoding="UTF-8"?>
<!DOCTYPE svg PUBLIC "-//W3C//DTD SVG 1.1//EN" "http://www.w3.org/Graphics/SVG/1.1/DTD/svg11.dtd">
<!-- Creator: CorelDRAW 2017 -->
<svg xmlns="http://www.w3.org/2000/svg" xml:space="preserve" width="100px" height="100px" version="1.1" style="shape-rendering:geometricPrecision; text-rendering:geometricPrecision; image-rendering:optimizeQuality; fill-rule:evenodd; clip-rule:evenodd"
viewBox="0 0 1588 1588"
 xmlns:xlink="http://www.w3.org/1999/xlink">
 <defs>
  <style type="text/css">
   <![CDATA[
    .fil0 {fill:#9900CC}
   ]]>
  </style>
 </defs>
 <g id="Capa_x0020_1">
  <metadata id="CorelCorpID_0Corel-Layer"/>
  <path class="fil0" d="M0 0l1588 0 0 1588 -1588 0 0 -1588zm244 1197l123 0c12,-17 29,-32 47,-42l0 -38c0,-61 45,-112 104,-120 -16,-40 -54,-148 -52,-228l-222 0 0 429zm785 -155l23 0c41,0 74,33 74,74l0 42c-9,-2 -19,-3 -29,-3l-27 0c-49,0 -91,27 -113,67 -2,-6 -3,-13 -3,-19l0 -87c0,-41 33,-74 74,-74zm-245 0l23 0c41,0 74,33 74,74l0 61c-20,-14 -45,-22 -71,-22l-27 0c-27,0 -52,8 -73,23l0 -62c0,-41 33,-74 74,-74zm286 153l27 0c49,0 89,40 89,89l0 104c0,49 -40,89 -89,89l-27 0c-49,0 -89,-40 -89,-89l0 -104c0,-49 40,-89 89,-89zm-287 0l27 0c49,0 89,40 89,89l0 104c0,49 -40,89 -89,89l-27 0c-49,0 -89,-40 -89,-89l0 -104c0,-49 40,-89 89,-89zm-247 -153l23 0c41,0 74,33 74,74l0 87c0,8 -1,16 -4,23 -21,-42 -65,-72 -115,-72l-27 0c-9,0 -17,1 -25,3l0 -41c0,-41 33,-74 74,-74zm-49 153l27 0c49,0 89,40 89,89l0 104c0,49 -40,89 -89,89l-27 0c-49,0 -89,-40 -89,-89l0 -104c0,-49 40,-89 89,-89zm-257 -874l14 0 0 412 226 0c0,0 0,-1 0,-1 24,-97 106,-51 220,-225 45,-69 74,-133 92,-185l20 0c18,52 47,116 92,185 114,175 196,129 220,225 0,0 0,1 0,1l227 0 0 -412 15 0c20,0 37,-17 37,-37l0 0c0,-20 -17,-37 -37,-37l-1129 0c-20,0 -37,17 -37,37l0 0c0,20 17,37 37,37zm891 447c2,80 -36,187 -52,228 59,8 105,59 105,120l0 37c19,11 34,26 47,43l123 0 0 -429 -223 0z"/>
 </g>
</svg>
