<?xml version="1.0" encoding="UTF-8"?>
<!DOCTYPE svg PUBLIC "-//W3C//DTD SVG 1.1//EN" "http://www.w3.org/Graphics/SVG/1.1/DTD/svg11.dtd">
<!-- Creator: CorelDRAW 2017 -->
<svg xmlns="http://www.w3.org/2000/svg" xml:space="preserve" width="33.434mm" height="33.434mm" version="1.1" style="shape-rendering:geometricPrecision; text-rendering:geometricPrecision; image-rendering:optimizeQuality; fill-rule:evenodd; clip-rule:evenodd"
viewBox="0 0 1069 1069"
 xmlns:xlink="http://www.w3.org/1999/xlink">
 <defs>
  <style type="text/css">
   <![CDATA[
    .fil0 {fill:red}
   ]]>
  </style>
 </defs>
 <g id="Capa_x0020_1">
  <metadata id="CorelCorpID_0Corel-Layer"/>
  <path class="fil0" d="M0 0l1069 0 0 1069 -1069 0 0 -1069zm567 161c23,0 42,-19 42,-42 0,-23 -19,-42 -42,-42 -23,0 -42,19 -42,42 0,23 19,42 42,42zm9 714l105 -34 83 71c0,0 24,31 4,59 -20,28 -51,25 -72,9 -21,-16 -121,-105 -121,-105zm-108 -267l63 -16 66 -57 0 198c-17,5 -28,9 -28,9l-100 -134zm157 -97l9 -8c0,0 20,-16 17,-41 -2,-17 -13,-25 -25,-28l0 -187 281 116c7,3 15,0 18,-8 3,-7 0,-15 -8,-18l-595 -246c-7,-3 -15,0 -18,8 -3,7 0,15 8,18l287 119 0 199 -109 88 -124 29c0,0 -52,15 -61,44 -10,28 -3,57 8,73 12,15 132,167 132,167 0,0 20,26 42,26 22,0 52,-8 69,-13 18,-5 141,-44 141,-44l115 99c0,0 35,25 66,-7 31,-31 -1,-64 -5,-68 -4,-4 -137,-115 -137,-115 0,0 -15,-15 -39,-9 -12,3 -42,12 -70,21l0 -213zm-324 -163c53,0 96,43 96,96 0,53 -43,96 -96,96 -53,0 -96,-43 -96,-96 0,-53 43,-96 96,-96zm-104 424c-7,-3 -11,-11 -8,-18 3,-7 11,-10 18,-8l153 64c7,3 10,11 8,18 -3,7 -11,10 -18,8l-153 -64zm-46 -96c-7,-3 -10,-11 -8,-18 3,-7 11,-10 18,-8l113 47c7,3 11,11 8,18 -3,7 -11,10 -18,8l-113 -47zm526 -469c23,0 42,-19 42,-42 0,-23 -19,-42 -42,-42 -23,0 -42,19 -42,42 0,23 19,42 42,42z"/>
 </g>
</svg>
