<?xml version="1.0" encoding="UTF-8"?>
<!DOCTYPE svg PUBLIC "-//W3C//DTD SVG 1.1//EN" "http://www.w3.org/Graphics/SVG/1.1/DTD/svg11.dtd">
<!-- Creator: CorelDRAW 2017 -->
<svg xmlns="http://www.w3.org/2000/svg" xml:space="preserve" width="100px" height="100px" version="1.1" style="shape-rendering:geometricPrecision; text-rendering:geometricPrecision; image-rendering:optimizeQuality; fill-rule:evenodd; clip-rule:evenodd"
viewBox="0 0 5827 5827"
 xmlns:xlink="http://www.w3.org/1999/xlink">
 <defs>
  <style type="text/css">
   <![CDATA[
    .fil0 {fill:#006633}
   ]]>
  </style>
 </defs>
 <g id="Capa_x0020_1">
  <metadata id="CorelCorpID_0Corel-Layer"/>
  <path class="fil0" d="M0 0l5827 0 0 5827 -5827 0 0 -5827zm3141 1046c1020,120 1817,990 1850,2057l-3433 0c-65,-831 384,-1608 1120,-1905 -896,112 -1593,920 -1604,1905l-264 0c32,-1053 808,-1914 1809,-2052 -57,-62 -91,-145 -91,-236 0,-193 157,-350 350,-350 193,0 350,157 350,350 0,88 -33,169 -87,231zm-1735 2977l213 931c0,0 118,-154 292,-170 174,-16 1070,0 1070,0 0,0 178,0 391,-158 213,-158 927,-653 927,-653 0,0 34,-132 -93,-122 -126,10 -862,361 -1022,393 -160,32 -766,24 -766,-57 0,-81 533,-195 596,-221 63,-26 142,-197 18,-247 -124,-49 -276,43 -446,43 -170,0 -322,0 -497,30 -176,30 -497,156 -551,189 -53,34 -132,41 -132,41zm-730 83l0 1251 876 -280 -229 -1089 -647 118zm521 614c95,0 172,77 172,172 0,95 -77,172 -172,172 -95,0 -172,-77 -172,-172 0,-95 77,-172 172,-172zm-369 -1472l4171 0c90,0 164,74 164,164l0 7c0,90 -74,164 -164,164l-4171 0c-90,0 -164,-74 -164,-164l0 -7c0,-90 74,-164 164,-164zm2049 -2660c126,0 228,102 228,228 0,126 -102,228 -228,228 -126,0 -228,-102 -228,-228 0,-126 102,-228 228,-228z"/>
 </g>
</svg>
