<?xml version="1.0" encoding="UTF-8"?>
<!DOCTYPE svg PUBLIC "-//W3C//DTD SVG 1.1//EN" "http://www.w3.org/Graphics/SVG/1.1/DTD/svg11.dtd">
<!-- Creator: CorelDRAW 2017 -->
<svg xmlns="http://www.w3.org/2000/svg" xml:space="preserve" width="33.4434mm" height="33.4434mm" version="1.1" style="shape-rendering:geometricPrecision; text-rendering:geometricPrecision; image-rendering:optimizeQuality; fill-rule:evenodd; clip-rule:evenodd"
viewBox="0 0 2850 2850"
 xmlns:xlink="http://www.w3.org/1999/xlink">
 <defs>
  <style type="text/css">
   <![CDATA[
    .fil0 {fill:#003399}
   ]]>
  </style>
 </defs>
 <g id="Capa_x0020_1">
  <metadata id="CorelCorpID_0Corel-Layer"/>
  <path class="fil0" d="M0 0l2850 0 0 2850 -2850 0 0 -2850zm1424 288c164,0 297,133 297,297 0,164 -133,297 -297,297 -164,0 -297,-133 -297,-297 0,-164 133,-297 297,-297zm795 1776c57,35 132,17 167,-40 35,-57 17,-132 -40,-167l-386 -235 -127 -514c-12,-47 -49,-81 -94,-90l0 0c0,0 -136,-33 -324,-33 -188,0 -328,33 -328,33l0 0c-45,9 -82,43 -94,90l-127 514 -386 235c-57,35 -75,110 -40,167 35,57 110,75 167,40l428 -261c9,-6 18,-12 25,-20l20 264c0,0 -418,105 -444,112 -27,7 -114,45 -114,146 0,101 101,141 101,141 0,0 352,56 512,81 117,18 238,30 295,34l0 0c1,0 48,1 65,-10 34,-31 70,-76 72,-122 1,-33 -9,-61 -22,-82 -22,-34 -53,-53 -67,-58 -25,-9 -337,-52 -338,-52 0,0 85,-48 184,-33l4 1 1 0c78,12 155,24 170,30 21,8 65,35 96,82 19,30 33,68 32,115 -1,42 -21,81 -47,115 202,-32 603,-98 635,-108 42,-15 106,-52 106,-145 0,-94 -71,-123 -71,-123l-498 -119 22 -260c5,5 11,9 17,12l428 261zm-805 -892l0 0c22,-28 55,-46 92,-46 65,0 118,55 118,122 0,28 -9,55 -25,75l0 0c0,0 -14,22 -56,67 -42,45 -128,94 -128,94l0 0 0 0c0,0 -86,-49 -128,-94 -42,-45 -56,-67 -56,-67l0 0c-16,-21 -25,-47 -25,-75 0,-67 53,-122 118,-122 37,0 71,18 92,46l0 0zm376 -662c386,147 661,521 661,959 0,114 -19,224 -53,327l-67 -35c30,-92 46,-190 46,-292 0,-393 -238,-730 -578,-875 0,-3 0,-6 0,-9 0,-26 -3,-51 -7,-75zm-1340 1279c-33,-101 -51,-208 -51,-320 0,-437 273,-810 658,-958 -5,24 -7,49 -7,74 0,3 0,7 0,10 -339,146 -576,482 -576,874 0,100 15,196 44,286l-68 34z"/>
 </g>
</svg>
