<?xml version="1.0" encoding="UTF-8"?>
<!DOCTYPE svg PUBLIC "-//W3C//DTD SVG 1.1//EN" "http://www.w3.org/Graphics/SVG/1.1/DTD/svg11.dtd">
<!-- Creator: CorelDRAW 2017 -->
<svg xmlns="http://www.w3.org/2000/svg" xml:space="preserve" width="45px" height="40px" version="1.1" style="shape-rendering:geometricPrecision; text-rendering:geometricPrecision; image-rendering:optimizeQuality; fill-rule:evenodd; clip-rule:evenodd"
viewBox="0 0 4165 4036"
 xmlns:xlink="http://www.w3.org/1999/xlink">
 <defs>
  <style type="text/css">
   <![CDATA[
    .fil0 {fill:black;fill-rule:nonzero}
   ]]>
  </style>
 </defs>
 <g id="Capa_x0020_1">
  <metadata id="CorelCorpID_0Corel-Layer"/>
  <path class="fil0" d="M3732 3047l0 0c43,0 78,35 78,78l0 22 0 199 0 143c0,151 -62,288 -161,387 -99,99 -236,161 -387,161l-2714 0c-151,0 -288,-62 -387,-161 -99,-99 -161,-236 -161,-387l0 -135 0 -190 0 -39c0,-43 35,-78 78,-78l0 0c69,0 132,-28 177,-73 45,-45 73,-108 73,-177 0,-69 -28,-132 -73,-177 -45,-45 -108,-73 -177,-73l0 0 0 0c-43,0 -78,-35 -78,-78l0 -36 0 -236 0 -92c0,-60 10,-118 28,-172 -3,-58 3,-116 18,-172 36,-136 124,-257 255,-333l2352 -1355c131,-75 280,-90 416,-54 136,36 257,124 333,255l44 77 128 222 9 16c21,37 9,85 -28,106 -60,35 -100,90 -117,152 -17,62 -10,130 25,190 35,60 90,100 152,117 62,17 130,10 190,-25l0 0 0 0c37,-21 85,-9 106,28l11 19 99 173 71 124c75,131 90,280 54,416 -36,136 -124,257 -255,333l-81 47 0 180 0 19c0,43 -35,78 -78,78 -69,0 -132,28 -177,73 -45,45 -73,108 -73,177 0,69 28,132 73,177 45,45 108,73 177,73l0 0zm-3418 -1438c71,-34 150,-53 234,-53l140 0 111 0 108 0c43,0 78,35 78,78 0,43 -35,78 -78,78l-108 0 -111 0 -140 0c-108,0 -206,44 -277,115 -71,71 -115,169 -115,277l0 92 0 202c81,16 153,55 209,111 73,73 119,175 119,287 0,112 -45,214 -119,287 -56,56 -128,96 -209,111l0 159 0 135c0,108 44,206 115,277 71,71 169,115 277,115l2714 0c108,0 206,-44 277,-115 71,-71 115,-169 115,-277l0 -143 0 -151c-81,-16 -153,-55 -209,-111 -73,-73 -119,-175 -119,-287 0,-112 45,-214 119,-287 56,-56 128,-96 209,-111l0 -205 0 -89c0,-108 -44,-206 -115,-277 -71,-71 -169,-115 -277,-115l-522 0 0 78 -155 0 0 -78 -417 0 -390 0 -212 0c-43,0 -78,-35 -78,-78 0,-43 35,-78 78,-78l212 0 390 0 558 0 -2 -3 134 -77 46 80 357 0c151,0 288,62 387,161 96,96 157,228 161,373l4 -2c94,-54 157,-141 183,-239 26,-97 15,-204 -38,-298l-71 -124 -75 -131c-78,27 -161,29 -237,8 -100,-27 -190,-92 -246,-189 -56,-97 -67,-208 -40,-308 21,-77 63,-147 126,-201l-102 -178 -44 -77c-54,-94 -141,-157 -239,-183 -97,-26 -204,-15 -298,38l-452 260 39 67 -134 77 -39 -67 -1765 1017c-23,13 -45,29 -64,46zm2313 -536l-134 77 -77 -134 134 -77 77 134zm114 2577l-155 0 0 -155 155 0 0 155zm0 -620l-155 0 0 -155 155 0 0 155zm0 -620l-155 0 0 -155 155 0 0 155z"/>
 </g>
</svg>
