<?xml version="1.0" encoding="UTF-8"?>
<!DOCTYPE svg PUBLIC "-//W3C//DTD SVG 1.1//EN" "http://www.w3.org/Graphics/SVG/1.1/DTD/svg11.dtd">
<!-- Creator: CorelDRAW 2017 -->
<svg xmlns="http://www.w3.org/2000/svg" xml:space="preserve" width="45px" height="45px" version="1.1" style="shape-rendering:geometricPrecision; text-rendering:geometricPrecision; image-rendering:optimizeQuality; fill-rule:evenodd; clip-rule:evenodd"
viewBox="0 0 511 625"
 xmlns:xlink="http://www.w3.org/1999/xlink">
 <defs>
  <style type="text/css">
   <![CDATA[
    .fil0 {fill:black;fill-rule:nonzero}
   ]]>
  </style>
 </defs>
 <g id="Capa_x0020_1">
  <metadata id="CorelCorpID_0Corel-Layer"/>
  <path class="fil0" d="M203 424c0,0 0,0 0,0l-115 0 -58 177 452 0 -56 -177 -54 0c-7,0 -12,-6 -12,-12 0,-7 6,-12 12,-12l63 0 0 0c5,0 10,3 12,9l63 201c1,1 1,3 1,4 0,7 -6,12 -12,12l-486 0 0 0c-1,0 -3,0 -4,-1 -6,-2 -10,-9 -8,-16l65 -201c1,-5 6,-9 12,-9l104 0 -63 -75c-33,-34 -54,-81 -54,-133 0,-53 21,-101 56,-135 35,-35 82,-56 135,-56 53,0 101,21 135,56 35,35 56,82 56,135 0,52 -21,99 -54,133l-127 153 37 0c7,0 12,6 12,12 0,7 -6,12 -12,12l-94 0c-7,0 -12,-6 -12,-12 0,-7 6,-12 12,-12l39 0 -45 -53zm-12 -53l66 78 66 -79 0 0 53 -64 0 0c29,-30 47,-71 47,-116 0,-46 -19,-88 -49,-118 -30,-30 -72,-49 -118,-49 -46,0 -88,19 -118,49 -30,30 -49,72 -49,118 0,45 18,86 47,116l0 0 54 64 0 0zm65 -255c21,0 40,8 53,22 14,14 22,33 22,53 0,21 -8,40 -22,53 -14,14 -33,22 -53,22 -21,0 -40,-8 -53,-22 -14,-14 -22,-33 -22,-53 0,-21 8,-40 22,-53 14,-14 33,-22 53,-22zm36 40c-9,-9 -22,-15 -36,-15 -14,0 -27,6 -36,15 -9,9 -15,22 -15,36 0,14 6,27 15,36 9,9 22,15 36,15 14,0 27,-6 36,-15 9,-9 15,-22 15,-36 0,-14 -6,-27 -15,-36z"/>
 </g>
</svg>
