<?xml version="1.0" encoding="UTF-8"?>
<!DOCTYPE svg PUBLIC "-//W3C//DTD SVG 1.1//EN" "http://www.w3.org/Graphics/SVG/1.1/DTD/svg11.dtd">
<!-- Creator: CorelDRAW 2017 -->
<svg xmlns="http://www.w3.org/2000/svg" xml:space="preserve" width="22.5319mm" height="17.8486mm" version="1.1" style="shape-rendering:geometricPrecision; text-rendering:geometricPrecision; image-rendering:optimizeQuality; fill-rule:evenodd; clip-rule:evenodd"
viewBox="0 0 368 292"
 xmlns:xlink="http://www.w3.org/1999/xlink">
 <defs>
  <style type="text/css">
   <![CDATA[
    .fil0 {fill:black;fill-rule:nonzero}
   ]]>
  </style>
 </defs>
 <g id="Capa_x0020_1">
  <metadata id="CorelCorpID_0Corel-Layer"/>
  <path class="fil0" d="M25 0l316 0c7,0 13,3 18,7 5,5 7,11 7,18l0 51 0 13 0 21c0,4 -3,7 -7,7 -4,0 -7,-3 -7,-7l0 -21 0 -13 0 -51c0,-3 -1,-6 -4,-9 -2,-2 -5,-4 -9,-4l-316 0c-3,0 -6,1 -9,4 -2,2 -4,5 -4,9l0 241c0,3 1,6 4,9 2,2 5,4 9,4l316 0c3,0 6,-1 9,-4 2,-2 4,-5 4,-9l0 -33 0 -18 0 -16c0,-4 3,-7 7,-7 4,0 7,3 7,7l0 16 0 18 0 33c0,7 -3,13 -7,18 -5,5 -11,7 -18,7l-316 0c-7,0 -13,-3 -18,-7 -5,-5 -7,-11 -7,-18l0 -241c0,-7 3,-13 7,-18 5,-5 11,-7 18,-7zm292 132l44 0c4,0 7,3 7,7l0 39c0,4 -3,7 -7,7l-44 0 0 13c5,1 10,4 13,8 5,5 8,12 8,20 0,8 -3,15 -8,20 -5,5 -12,8 -20,8 -8,0 -15,-3 -20,-8 -5,-5 -8,-12 -8,-20 0,-8 3,-15 8,-20 4,-4 8,-6 14,-8l0 -67c0,-4 3,-7 7,-7 4,0 7,3 7,7l0 2zm36 14l-36 0 0 26 36 0 0 -26zm-36 66l0 9c0,4 -3,7 -7,7 -4,0 -7,-3 -7,-7l0 -9c-2,1 -3,2 -4,3 -3,3 -4,7 -4,11 0,4 2,8 4,11 3,3 7,4 11,4 4,0 8,-2 11,-4 3,-3 4,-7 4,-11 0,-4 -2,-8 -4,-11 -1,-1 -2,-2 -4,-3zm-78 -166c7,0 12,3 17,7 3,3 5,6 6,10l19 0c4,0 41,-1 41,39 0,4 -3,7 -7,7 -4,0 -7,-3 -7,-7 0,-26 -24,-26 -27,-25 0,0 -1,0 -1,0l-19 0c-1,4 -3,7 -6,10 -4,4 -10,7 -17,7 -7,0 -12,-3 -17,-7 -3,-3 -5,-6 -6,-10l-113 0c-4,0 -7,-3 -7,-7 0,-4 3,-7 7,-7l113 0c1,-4 3,-7 6,-10 4,-4 10,-7 17,-7zm7 16c-2,-2 -4,-3 -7,-3 -3,0 -5,1 -7,3 -2,2 -3,4 -3,7 0,3 1,5 3,7 2,2 4,3 7,3 3,0 5,-1 7,-3 2,-2 3,-4 3,-7 0,-3 -1,-5 -3,-7zm-123 61c7,0 12,3 17,7 3,3 5,6 6,10l135 0c4,0 7,3 7,7 0,4 -3,7 -7,7l-135 0c-1,4 -3,7 -6,10 -4,4 -10,7 -17,7 -7,0 -12,-3 -17,-7 -3,-3 -5,-6 -6,-10l-13 0c0,0 -1,0 -1,0 -4,0 -36,-1 -36,32 0,35 31,35 31,35l0 0 0 0 90 0c1,-4 3,-8 6,-11 4,-4 10,-7 17,-7 7,0 12,3 17,7 3,3 5,6 6,11l41 0c4,0 7,3 7,7 0,4 -3,7 -7,7l-42 0c-1,4 -3,7 -6,10 -4,4 -10,7 -17,7 -7,0 -12,-3 -17,-7 -3,-3 -5,-6 -6,-10l-90 0 0 0c-1,0 -45,0 -45,-48 0,-46 45,-45 50,-45l13 0c1,-4 3,-7 6,-10 4,-4 10,-7 17,-7zm7 16c-2,-2 -4,-3 -7,-3 -3,0 -5,1 -7,3 -2,2 -3,4 -3,7 0,3 1,5 3,7 2,2 4,3 7,3 3,0 5,-1 7,-3 2,-2 3,-4 3,-7 0,-3 -1,-5 -3,-7zm72 79c-2,-2 -4,-3 -7,-3 -3,0 -5,1 -7,3 -2,2 -3,4 -3,7 0,3 1,5 3,7 2,2 4,3 7,3 3,0 5,-1 7,-3 2,-2 3,-4 3,-7 0,-3 -1,-5 -3,-7zm-121 -177c2,-3 7,-3 9,-1 3,2 3,7 1,9l-17 19 17 19c2,3 2,7 -1,9 -3,2 -7,2 -9,-1l-16 -18 -16 18c-2,3 -7,3 -9,1 -3,-2 -3,-7 -1,-9l17 -19 -17 -19c-2,-3 -2,-7 1,-9 3,-2 7,-2 9,1l16 18 16 -18z"/>
 </g>
</svg>
