<?xml version="1.0" encoding="UTF-8"?>
<!DOCTYPE svg PUBLIC "-//W3C//DTD SVG 1.1//EN" "http://www.w3.org/Graphics/SVG/1.1/DTD/svg11.dtd">
<!-- Creator: CorelDRAW 2017 -->
<svg xmlns="http://www.w3.org/2000/svg" xml:space="preserve" width="45px" height="40px" version="1.1" style="shape-rendering:geometricPrecision; text-rendering:geometricPrecision; image-rendering:optimizeQuality; fill-rule:evenodd; clip-rule:evenodd"
viewBox="0 0 297 326"
 xmlns:xlink="http://www.w3.org/1999/xlink">
 <defs>
  <style type="text/css">
   <![CDATA[
    .fil0 {fill:black}
   ]]>
  </style>
 </defs>
 <g id="Capa_x0020_1">
  <metadata id="CorelCorpID_0Corel-Layer"/>
  <path class="fil0" d="M175 174l98 0c14,0 25,11 25,25l0 102c0,14 -11,25 -25,25l-98 0c-14,0 -25,-11 -25,-25l0 -102c0,-14 11,-25 25,-25zm-73 121l-21 0 -71 0c-3,0 -6,-1 -8,-3 -2,-2 -3,-5 -3,-8l0 -273c0,-3 1,-6 3,-8 2,-2 5,-3 8,-3l130 0 6 0 0 0 0 0c1,0 3,1 4,2l83 79c1,1 2,3 2,4l0 0 0 0 0 0 0 6 0 17 0 13 0 24c0,3 -3,6 -6,6 -3,0 -6,-3 -6,-6l0 -24 0 -13 0 -17 -72 0c-3,0 -6,-1 -8,-3 -2,-2 -3,-5 -3,-8l0 -68 -129 0 0 271 69 0 21 0 16 0c3,0 6,3 6,6 0,3 -3,6 -6,6l-16 0zm51 -275l0 59 61 0 -61 -59zm-99 47c-3,0 -6,-3 -6,-6 0,-3 3,-6 6,-6l32 0c3,0 6,3 6,6 0,3 -3,6 -6,6l-32 0zm0 42c-3,0 -6,-3 -6,-6 0,-3 3,-6 6,-6l59 0c3,0 6,3 6,6 0,3 -3,6 -6,6l-59 0zm0 43c-3,0 -6,-3 -6,-6 0,-3 3,-6 6,-6l101 0c3,0 6,3 6,6 0,3 -3,6 -6,6l-101 0zm0 42c-3,0 -6,-3 -6,-6 0,-3 3,-6 6,-6l64 0c3,0 6,3 6,6 0,3 -3,6 -6,6l-64 0zm0 43c-3,0 -6,-3 -6,-6 0,-3 3,-6 6,-6l64 0c3,0 6,3 6,6 0,3 -3,6 -6,6l-64 0zm128 51l38 0c2,0 3,2 3,3l0 3c0,1 -1,2 -2,2l-41 0c-1,0 -2,-1 -2,-2l0 -3c0,-2 2,-3 3,-3zm79 -65c2,0 3,2 4,3 0,1 0,5 0,6 1,1 2,4 0,5 -1,1 -4,0 -5,-1 -1,0 -2,-2 -3,-3 -1,-1 -2,-3 -1,-4 1,-2 2,-4 3,-5 1,-1 2,-1 2,-1zm-15 6c0,0 3,-3 4,-4 1,0 1,1 1,1 0,1 0,2 1,2 1,0 1,3 0,3 -1,1 -2,0 -3,1 0,0 -2,1 -2,0 -1,-1 -2,-4 -2,-4zm-66 -17c0,0 -1,-2 0,-3 0,-1 1,-2 4,-2 2,0 38,0 38,0 0,0 2,0 3,2 1,2 0,3 0,3 -1,0 0,-2 -2,-2 -2,0 -3,1 -3,3 0,2 3,5 6,5 3,0 7,-4 7,-8 0,-4 -2,-9 -11,-9 -9,0 -36,0 -36,0 0,0 -8,0 -9,5 -2,5 -1,9 2,11 3,2 6,0 8,-1 2,-1 2,-4 0,-5 -1,-1 -3,-1 -3,0 -1,0 -1,2 -1,2zm83 33l0 29c0,1 -1,2 -2,2l-19 0c-1,0 -2,-1 -2,-2l0 -22 0 -4 0 -1c0,-2 1,-3 3,-3l0 0c0,0 1,0 1,1l0 3 0 4 0 17c0,1 1,2 2,2 1,0 2,-1 2,-2l0 -28c0,0 0,-1 1,-1 1,0 2,-2 2,-2 0,-1 0,-1 3,-1 2,0 3,0 4,1 1,1 1,2 2,3 1,1 1,1 2,2 1,1 3,1 3,3zm-7 2c0,-1 1,-2 2,-2 1,0 2,1 2,2l0 22c0,1 -1,2 -2,2 -1,0 -2,-1 -2,-2l0 -22zm-7 -3c0,-1 1,-2 2,-2 1,0 2,1 2,2l0 25c0,1 -1,2 -2,2 -1,0 -2,-1 -2,-2l0 -25zm-58 -34l19 0c1,0 2,1 2,2l0 11 0 2 0 4c0,1 -1,2 -2,2l0 0c-1,0 -2,-1 -2,-2l0 -4 0 -2 0 -6c0,-1 -1,-2 -2,-2 -1,0 -2,1 -2,2l0 18 0 2 0 5c0,2 -1,3 -3,3l0 0c0,0 0,0 0,0l0 -7 0 -2 0 -18c0,-1 -1,-2 -2,-2 -1,0 -2,1 -2,2l0 52c0,1 1,2 2,2 1,0 2,-1 2,-2l0 -10 0 -5 0 -3c0,-1 1,-2 2,-2l0 0c0,0 1,0 1,1l0 5 0 5 0 10c0,1 1,2 2,2 1,0 2,-1 2,-2l0 -23 0 -3 0 -3c0,-2 1,-3 3,-3l0 0c0,0 0,0 0,0l0 6 0 3 0 28c0,1 -1,2 -2,2l-19 0c-1,0 -2,-1 -2,-2l0 -34c0,-2 1,-2 1,-3 0,-1 0,-3 1,-3 0,-1 0,-3 0,-4 -1,0 -1,-2 -1,-2l0 -16c0,-1 1,-2 2,-2zm1 7c0,-1 1,-2 2,-2 1,0 2,1 2,2l0 52c0,1 -1,2 -2,2 -1,0 -2,-1 -2,-2l0 -52zm43 61l30 0c1,0 2,1 2,2l0 2c0,1 -1,1 -1,1l-32 0c-1,0 -1,-1 -1,-1l0 -2c0,-1 1,-2 2,-2zm-50 0l30 0c1,0 2,1 2,2l0 2c0,1 -1,1 -1,1l-32 0c-1,0 -1,-1 -1,-1l0 -2c0,-1 1,-2 2,-2zm46 9l38 0c2,0 3,2 3,3l0 3c0,1 -1,2 -2,2l-41 0c-1,0 -2,-1 -2,-2l0 -3c0,-2 2,-3 3,-3z"/>
 </g>
</svg>
