<?xml version="1.0" encoding="UTF-8"?>
<!DOCTYPE svg PUBLIC "-//W3C//DTD SVG 1.1//EN" "http://www.w3.org/Graphics/SVG/1.1/DTD/svg11.dtd">
<!-- Creator: CorelDRAW 2017 -->
<svg xmlns="http://www.w3.org/2000/svg" xml:space="preserve" width="45px" height="40px" version="1.1" style="shape-rendering:geometricPrecision; text-rendering:geometricPrecision; image-rendering:optimizeQuality; fill-rule:evenodd; clip-rule:evenodd"
viewBox="0 0 3218 3015"
 xmlns:xlink="http://www.w3.org/1999/xlink">
 <defs>
  <style type="text/css">
   <![CDATA[
    .fil0 {fill:black}
   ]]>
  </style>
 </defs>
 <g id="Capa_x0020_1">
  <metadata id="CorelCorpID_0Corel-Layer"/>
  <path class="fil0" d="M1546 1266l343 343 998 998c91,91 91,239 0,329l-2 2c-91,91 -239,91 -330,0l-1142 -1142c-196,18 -487,-142 -816,-471 -437,-437 -573,-867 -596,-1020 -22,-153 82,-260 191,-272 109,-12 227,108 227,108l1124 1124zm1642 -741l12 12c24,24 24,62 0,86l-183 183 -151 151 -196 196c-131,149 -302,127 -384,124 -81,-3 -153,1 -253,69 -39,27 -97,80 -157,140l-152 -152c108,-114 182,-201 194,-234 30,-82 27,-271 26,-361 -1,-90 120,-191 120,-191l196 -196 151 -151 183 -183c24,-24 62,-24 86,0l12 12c24,24 24,62 0,86l-75 75 -109 109 -291 291c-19,19 -19,51 0,71l0 0c19,19 51,19 71,0l291 -291 109 -109 75 -75c24,-24 62,-24 86,0l12 12c24,24 24,62 0,86l-75 75 -109 109 -291 291c-19,19 -19,51 0,71l0 0c19,19 51,19 71,0l291 -291 109 -109 75 -75c24,-24 62,-24 86,0l12 12c24,24 24,62 0,86l-75 75 -109 109 -291 291c-19,19 -19,51 0,71l0 0c19,19 51,19 71,0l291 -291 109 -109 75 -75c24,-24 62,-24 86,0zm-1734 1419c-290,341 -823,979 -859,1015 -47,47 -211,106 -331,-14 -120,-120 -41,-281 -17,-305 24,-24 461,-401 840,-712 34,-28 68,-57 103,-86 81,30 148,42 194,33l70 70z"/>
 </g>
</svg>
