<?xml version="1.0" encoding="UTF-8"?>
<!DOCTYPE svg PUBLIC "-//W3C//DTD SVG 1.1//EN" "http://www.w3.org/Graphics/SVG/1.1/DTD/svg11.dtd">
<!-- Creator: CorelDRAW 2017 -->
<svg xmlns="http://www.w3.org/2000/svg" xml:space="preserve" width="20.2724mm" height="14.4312mm" version="1.1" style="shape-rendering:geometricPrecision; text-rendering:geometricPrecision; image-rendering:optimizeQuality; fill-rule:evenodd; clip-rule:evenodd"
viewBox="0 0 454 323"
 xmlns:xlink="http://www.w3.org/1999/xlink">
 <defs>
  <style type="text/css">
   <![CDATA[
    .fil0 {fill:black}
   ]]>
  </style>
 </defs>
 <g id="Capa_x0020_1">
  <metadata id="CorelCorpID_0Corel-Layer"/>
  <path class="fil0" d="M22 0l81 0 -31 44c-2,-1 -5,-1 -7,-1 -7,0 -13,2 -17,6l-47 -30c1,-10 10,-19 21,-19zm303 141c0,0 13,-14 25,-19 12,-5 33,-7 33,-7l36 26 -32 37 -62 -38zm-129 4l24 15 30 -38 25 16 -41 62 -52 -33 15 -22zm-62 -132l21 16 -7 8 32 21 -26 36 -52 -35 32 -46zm-17 -13l170 0c-39,26 -73,54 -98,84 -11,13 -21,27 -30,40l-68 -44c1,-3 2,-6 2,-10 0,-8 -3,-15 -8,-20 -1,-1 -1,-1 -2,-2l35 -49zm35 135c-46,73 -64,142 -70,189l-47 0c8,-21 18,-52 19,-68l0 0 0 -2c2,-26 6,-62 -12,-85 -6,-8 -14,-14 -24,-19l37 -51c3,1 5,1 8,1 8,0 14,-3 19,-8l68 44zm-130 189l-1 0c-12,0 -22,-10 -22,-22l0 -128 12 -16c8,4 16,10 21,17 14,19 11,53 9,77l0 2 0 0c-1,16 -13,49 -20,69zm-22 -170l0 -121 39 25c-2,4 -3,8 -3,12 0,8 3,15 8,20 0,0 1,1 1,1l-46 62zm76 -94c-3,-3 -7,-5 -11,-5 -4,0 -8,2 -11,5 -3,3 -5,7 -5,11 0,4 2,8 5,11 3,3 7,5 11,5 4,0 8,-2 11,-5 3,-3 5,-7 5,-11 0,-4 -2,-8 -5,-11zm268 -59l89 0c12,0 22,10 22,22l0 75c-36,-6 -62,-8 -82,-6 -29,2 -44,11 -55,19 -20,14 -69,94 -81,113l-72 -48c13,-23 29,-47 48,-70 31,-37 79,-72 131,-103zm111 108l0 132 -151 -98c8,-11 16,-20 21,-24 10,-7 23,-15 49,-17 19,-2 45,0 81,6zm0 147l0 47c0,12 -10,22 -22,22l-46 0 -141 -94c7,-12 30,-48 50,-77l158 103zm-89 68l-79 0 16 -23 -59 -35 -21 31 42 26 -152 0c5,-36 17,-85 45,-139l207 139z"/>
 </g>
</svg>
