<?xml version="1.0" encoding="UTF-8"?>
<!DOCTYPE svg PUBLIC "-//W3C//DTD SVG 1.1//EN" "http://www.w3.org/Graphics/SVG/1.1/DTD/svg11.dtd">
<!-- Creator: CorelDRAW 2017 -->
<svg xmlns="http://www.w3.org/2000/svg" xml:space="preserve" width="45px" height="45px" version="1.1" style="shape-rendering:geometricPrecision; text-rendering:geometricPrecision; image-rendering:optimizeQuality; fill-rule:evenodd; clip-rule:evenodd"
viewBox="0 0 443 437"
 xmlns:xlink="http://www.w3.org/1999/xlink">
 <defs>
  <style type="text/css">
   <![CDATA[
    .fil0 {fill:black;fill-rule:nonzero}
   ]]>
  </style>
 </defs>
 <g id="Capa_x0020_1">
  <metadata id="CorelCorpID_0Corel-Layer"/>
  <path class="fil0" d="M254 65l62 0 0 33c0,7 3,14 8,19 5,5 11,8 19,8l6 0c7,0 14,-3 19,-8 5,-5 8,-11 8,-19l0 -33 29 0c11,0 21,4 28,12 7,7 12,17 12,28l0 293c0,11 -4,21 -12,28 -7,7 -17,12 -28,12l-326 0c-11,0 -21,-4 -28,-12 -7,-7 -12,-17 -12,-28l0 -155c6,4 11,8 18,11l0 144c0,6 2,11 6,15 4,4 9,6 15,6l326 0c6,0 11,-2 15,-6 4,-4 6,-9 6,-15l0 -229 -165 0c4,-14 6,-28 6,-43 0,-22 -5,-42 -13,-60zm-131 186c-34,0 -65,-14 -87,-37 -22,-23 -36,-54 -36,-89 0,-25 7,-49 20,-68 -2,-3 -4,-5 -4,-5 0,0 -9,-3 -9,-10 0,-6 38,-12 46,-6 8,5 6,43 -1,46 -4,1 -11,-5 -19,-12 -9,16 -15,35 -15,55 0,30 12,57 31,76 19,19 46,32 75,32 29,0 56,-12 75,-32 19,-20 31,-47 31,-76 0,-30 -12,-57 -31,-76 -19,-19 -46,-32 -75,-32 -21,0 -41,6 -57,17 -1,-5 -3,-8 -5,-10 -2,-1 -4,-2 -7,-3 20,-14 44,-22 69,-22 34,0 65,14 87,37 22,23 36,54 36,89 0,35 -14,66 -36,89 -22,23 -53,37 -87,37zm27 129l-36 0 0 -35 36 0 0 35zm-36 -70l0 -36 36 0 0 36 -36 0zm107 70l-36 0 0 -35 36 0 0 35zm-36 -70l0 -36 36 0 0 36 -36 0zm107 70l-36 0 0 -35 36 0 0 35zm-36 -70l0 -36 36 0 0 36 -36 0zm0 -70l0 -36 36 0 0 36 -36 0zm107 140l-36 0 0 -35 36 0 0 35zm-36 -70l0 -36 36 0 0 36 -36 0zm0 -70l0 -36 36 0 0 36 -36 0zm-200 -134c14,-13 42,-41 45,-42 4,-2 8,-1 11,2 2,3 2,9 -3,13 -3,3 -29,32 -39,44 0,1 0,2 0,3 0,5 -2,10 -5,13 0,13 -1,34 -1,39 -1,8 -2,14 -10,15 -8,1 -9,-6 -9,-6l-4 -44c-6,-3 -10,-10 -10,-17 0,-11 9,-20 19,-20 2,0 3,0 5,1zm221 -69l-6 0c-2,0 -5,1 -6,3 -2,2 -3,4 -3,6l0 53c0,2 1,5 3,6 2,2 4,3 6,3l6 0c2,0 5,-1 6,-3 2,-2 3,-4 3,-6l0 -53c0,-2 -1,-5 -3,-6 -2,-2 -4,-3 -6,-3z"/>
 </g>
</svg>
