<?xml version="1.0" encoding="UTF-8"?>
<!DOCTYPE svg PUBLIC "-//W3C//DTD SVG 1.1//EN" "http://www.w3.org/Graphics/SVG/1.1/DTD/svg11.dtd">
<!-- Creator: CorelDRAW 2017 -->
<svg xmlns="http://www.w3.org/2000/svg" xml:space="preserve" width="45px" height="40px" version="1.1" style="shape-rendering:geometricPrecision; text-rendering:geometricPrecision; image-rendering:optimizeQuality; fill-rule:evenodd; clip-rule:evenodd"
viewBox="0 0 823 795"
 xmlns:xlink="http://www.w3.org/1999/xlink">
 <defs>
  <style type="text/css">
   <![CDATA[
    .fil0 {fill:black}
   ]]>
  </style>
 </defs>
 <g id="Capa_x0020_1">
  <metadata id="CorelCorpID_0Corel-Layer"/>
  <path class="fil0" d="M374 0l0 0c19,0 35,16 35,35l0 719c0,19 -16,35 -35,35l0 0c-19,0 -35,-16 -35,-35l0 -719c0,-19 16,-35 35,-35zm257 410c106,0 192,86 192,192 0,106 -86,192 -192,192 -106,0 -192,-86 -192,-192 0,-106 86,-192 192,-192zm-32 242c-2,-7 -3,-13 -3,-18 0,-5 1,-9 3,-14 2,-5 6,-11 12,-17 7,-7 13,-12 20,-17 7,-5 13,-10 19,-17 5,-7 8,-14 8,-21 0,-16 -11,-24 -33,-24 -9,0 -18,2 -26,5 -1,11 -3,20 -6,27l-31 0c-3,-6 -5,-13 -6,-22 -2,-9 -2,-15 -2,-19 0,-4 0,-6 0,-7 9,-6 21,-11 34,-15 14,-3 27,-5 39,-5 24,0 44,5 59,16 15,11 23,27 23,47 0,9 -2,17 -6,24 -4,7 -8,14 -14,18 -6,5 -11,9 -18,14 -6,5 -12,9 -18,13 -11,8 -17,17 -17,28 0,1 0,2 0,3l-38 0zm18 65c-18,0 -27,-8 -27,-24 0,-16 9,-24 27,-24 18,0 27,8 27,24 0,16 -9,24 -27,24zm-23 -458l-168 -76 0 125 168 76 17 -24 17 -24 -17 -39 -17 -39zm-27 19c-9,-4 -17,4 -17,19 0,15 8,30 17,35 9,4 17,-4 17,-19 0,-15 -8,-30 -17,-35zm128 -249l-268 0 0 125 268 0 27 -31 27 -31 -27 -31 -27 -31zm-43 32c-15,0 -27,12 -27,27 0,15 12,27 27,27 15,0 27,-12 27,-27 0,-15 -12,-27 -27,-27zm-598 49l268 0 0 125 -268 0 -27 -31 -27 -31 27 -31 27 -31zm43 32c15,0 27,12 27,27 0,15 -12,27 -27,27 -15,0 -27,-12 -27,-27 0,-15 12,-27 27,-27z"/>
 </g>
</svg>
